# xmcd
#
# Track frame offsets:
#	150
#	11809
#	29014
#	41383
#	53219
#	64706
#	74864
#	87084
#	96423
#	109854
#	124533
#	137370
#
# Disc length: 1993 seconds
#
# Revision: 1
# Processed by: cddbd v1.5.2PL0 Copyright (c) Steve Scherf et al.
# Submitted via: audiograbber 1.83.01
#
DISCID=a707c70c
DTITLE=Scott Brannon Band - Mountain Lady
DYEAR=2003
DGENRE=Bluegrass
TTITLE0=Ain't Nobody Gonna Miss Me
TTITLE1=West Virginia My Home
TTITLE2=Mountain Lady
TTITLE3=The Bluebirds Are Singing For Me
TTITLE4=This Year's Fallen Star
TTITLE5=Godbye Liza Jane
TTITLE6=Linda Lou
TTITLE7=Blue Monday Morning
TTITLE8=Emotions
TTITLE9=You're Not Mine To Love
TTITLE10=John Henry
TTITLE11=Cabin on the Hill
EXTD=
EXTT0=
EXTT1=
EXTT2=
EXTT3=
EXTT4=
EXTT5=
EXTT6=
EXTT7=
EXTT8=
EXTT9=
EXTT10=
EXTT11=
PLAYORDER=
